<svg width="28" height="28" viewBox="0 0 28 28" fill="none" xmlns="http://www.w3.org/2000/svg">
<path d="M0.378098 0.458984H27.4367V27.5122H0.378098V0.458984Z" fill="white" fill-opacity="0.01"/>
<path fill-rule="evenodd" clip-rule="evenodd" d="M10.1806 6.41128C10.6286 6.84363 10.6413 7.55723 10.2088 8.00515L4.22767 14.2005L10.1801 19.9374C10.6284 20.3694 10.6415 21.083 10.2093 21.5312C9.77718 21.9794 9.06344 21.9925 8.61515 21.5605L1.8505 15.0408C1.63513 14.8332 1.51109 14.5485 1.50571 14.2495C1.50032 13.9505 1.61402 13.6616 1.82177 13.4464L8.58642 6.43947C9.01886 5.99155 9.7326 5.97892 10.1806 6.41128Z" fill="black"/>
<path fill-rule="evenodd" clip-rule="evenodd" d="M17.6341 6.41128C18.0821 5.97892 18.7959 5.99155 19.2283 6.43947L25.993 13.4464C26.2007 13.6616 26.3144 13.9505 26.309 14.2495C26.3036 14.5485 26.1796 14.8332 25.9642 15.0408L19.1996 21.5605C18.7513 21.9925 18.0376 21.9794 17.6054 21.5312C17.1733 21.083 17.1864 20.3694 17.6347 19.9374L23.5871 14.2005L17.6059 8.00515C17.1735 7.55723 17.1861 6.84363 17.6341 6.41128Z" fill="black"/>
<path fill-rule="evenodd" clip-rule="evenodd" d="M13.9077 8.91315C14.5305 8.91315 15.0355 9.41782 15.0355 10.0404V17.9309C15.0355 18.5534 14.5305 19.0581 13.9077 19.0581C13.2848 19.0581 12.7799 18.5534 12.7799 17.9309V10.0404C12.7799 9.41782 13.2848 8.91315 13.9077 8.91315Z" fill="black"/>
<path fill-rule="evenodd" clip-rule="evenodd" d="M9.72782 13.7522C10.1681 13.312 10.882 13.312 11.3223 13.7522L13.9074 16.3368L16.4925 13.7522C16.9328 13.312 17.6466 13.312 18.0869 13.7522C18.5272 14.1924 18.5272 14.9061 18.0869 15.3463L14.7046 18.728C14.2643 19.1682 13.5504 19.1682 13.1101 18.728L9.72782 15.3463C9.28752 14.9061 9.28752 14.1924 9.72782 13.7522Z" fill="black"/>
</svg>
