<svg width="28" height="28" viewBox="0 0 28 28" fill="none" xmlns="http://www.w3.org/2000/svg">
<path d="M13.9914 1.58627C10.737 1.5532 7.60257 2.81336 5.27705 5.0898C2.95154 7.36623 1.62519 10.4727 1.58949 13.7264C1.60203 16.2978 2.42937 18.799 3.95268 20.8709C5.47599 22.9427 7.61688 24.4786 10.0679 25.2578C10.688 25.3706 10.9134 24.9986 10.9134 24.6717C10.9134 24.3448 10.9134 23.6234 10.9134 22.6089C7.46347 23.3416 6.73063 20.9857 6.73063 20.9857C6.50097 20.2461 6.01271 19.6139 5.35515 19.2047C4.22771 18.4607 5.44535 18.472 5.44535 18.472C5.83505 18.5241 6.2079 18.6637 6.53593 18.8804C6.86397 19.0971 7.13867 19.3852 7.33945 19.7232C7.68933 20.3298 8.26343 20.7748 8.93817 20.9624C9.61292 21.15 10.3344 21.0653 10.9473 20.7264C11.0103 20.1091 11.2899 19.5341 11.7365 19.1032C8.98551 18.7989 6.09926 17.7618 6.09926 13.1064C6.07466 11.8921 6.52345 10.7157 7.35072 9.82623C6.97396 8.78363 7.01845 7.63527 7.47474 6.62493C7.47474 6.62493 8.52326 6.29804 10.8571 7.86487C12.8886 7.32362 15.0265 7.32362 17.058 7.86487C19.4256 6.29804 20.4403 6.62493 20.4403 6.62493C20.8966 7.63527 20.9411 8.78363 20.5643 9.82623C21.4108 10.6994 21.884 11.8679 21.8835 13.0839C21.8835 17.7506 18.9747 18.7763 16.2462 19.0807C16.545 19.3707 16.7758 19.7233 16.922 20.1131C17.0682 20.5029 17.1262 20.9202 17.0918 21.3351V24.6604C17.0918 24.6604 17.3173 25.3706 17.9374 25.2466C20.3814 24.4625 22.5151 22.9263 24.0337 20.8573C25.5523 18.7884 26.3781 16.2926 26.3932 13.7264C26.3575 10.4727 25.0312 7.36623 22.7057 5.0898C20.3801 2.81336 17.2458 1.5532 13.9914 1.58627Z" fill="#231F20"/>
</svg>
