<svg width="28" height="28" viewBox="0 0 28 28" fill="none" xmlns="http://www.w3.org/2000/svg">
<path d="M17.5008 9.92759C16.6367 9.92462 15.7805 10.092 14.9811 10.4203C14.1818 10.7485 13.455 11.2311 12.8424 11.8404C12.2298 12.4498 11.7434 13.1739 11.411 13.9714C11.0786 14.7689 10.9068 15.624 10.9053 16.488V23.116C10.9053 23.3851 11.0122 23.6431 11.2025 23.8334C11.3928 24.0236 11.6509 24.1305 11.92 24.1305H14.2876C14.5567 24.1305 14.8148 24.0236 15.0051 23.8334C15.1954 23.6431 15.3023 23.3851 15.3023 23.116V16.488C15.3021 16.1807 15.3666 15.8768 15.4917 15.5962C15.6169 15.3155 15.7997 15.0644 16.0284 14.8591C16.2572 14.6538 16.5266 14.4991 16.8191 14.4049C17.1117 14.3107 17.4208 14.2792 17.7263 14.3125C18.2742 14.3815 18.7778 14.6491 19.1415 15.0647C19.5052 15.4802 19.7037 16.0148 19.6993 16.5669V23.116C19.6993 23.3851 19.8062 23.6431 19.9965 23.8334C20.1868 24.0236 20.4449 24.1305 20.714 24.1305H23.0817C23.3508 24.1305 23.6089 24.0236 23.7992 23.8334C23.9894 23.6431 24.0964 23.3851 24.0964 23.116V16.488C24.0949 15.624 23.923 14.7689 23.5906 13.9714C23.2582 13.1739 22.7718 12.4498 22.1592 11.8404C21.5466 11.2311 20.8198 10.7485 20.0205 10.4203C19.2212 10.092 18.3649 9.92462 17.5008 9.92759Z" fill="#231F20"/>
<path d="M7.86118 10.9422H4.81709C4.25668 10.9422 3.80239 11.3964 3.80239 11.9567V23.1161C3.80239 23.6764 4.25668 24.1306 4.81709 24.1306H7.86118C8.42158 24.1306 8.87588 23.6764 8.87588 23.1161V11.9567C8.87588 11.3964 8.42158 10.9422 7.86118 10.9422Z" fill="#231F20"/>
<path d="M6.33913 8.91312C7.74014 8.91312 8.87588 7.7776 8.87588 6.37688C8.87588 4.97615 7.74014 3.84064 6.33913 3.84064C4.93813 3.84064 3.80239 4.97615 3.80239 6.37688C3.80239 7.7776 4.93813 8.91312 6.33913 8.91312Z" fill="#231F20"/>
</svg>
